# xmcd CD database file
# Copyright (C) 1997 Ti Kan
# 
# Track frame offsets:
#     150
#     11545
#     23800
#     38127
#     52370
#     65755
#     78205
#     91662
#     103857
#     115272
# 
# Disc length: 1739 seconds
# 
# Revision: 1
# Processed by: cddbd v1.4b41PL1 Copyright (c) Steve Scherf et al.
# Submitted via: DiscPlay 4.0.4
# 
DISCID=7c06c90a
DTITLE=Janie Frickie - Saddle The Wind
DYEAR=1900
DGENRE=
TTITLE0=Sugar Moon
TTITLE1=I'll Walk Before I'll Crawl
TTITLE2=Heart
TTITLE3=I'm Not That Good At Goodbye
TTITLE4=Don't Touch Me
TTITLE5=Where Does Love Go (When It's Gone)
TTITLE6=If I Were Only Her Tonight
TTITLE7=The Healing Hands Of Time
TTITLE8=Crazy Dreams
TTITLE9=Saddle The Wind
EXTD=
EXTT0=
EXTT1=
EXTT2=
EXTT3=
EXTT4=
EXTT5=
EXTT6=
EXTT7=
EXTT8=
EXTT9=
PLAYORDER=
